<svg xmlns="http://www.w3.org/2000/svg" width="41.73" height="41.73" viewBox="0 0 41.73 41.73">
  <g id="Group_2" data-name="Group 2" transform="translate(-37 -245)">
    <circle id="Ellipse_2" data-name="Ellipse 2" cx="20.865" cy="20.865" r="20.865" transform="translate(37 245)"/>
    <path id="twitter" d="M20.027,52.6c.014.2.014.4.014.595A12.927,12.927,0,0,1,7.025,66.211,12.928,12.928,0,0,1,0,64.158a9.464,9.464,0,0,0,1.1.057,9.162,9.162,0,0,0,5.68-1.955,4.583,4.583,0,0,1-4.277-3.173,5.77,5.77,0,0,0,.864.071A4.838,4.838,0,0,0,4.575,59a4.575,4.575,0,0,1-3.668-4.49v-.057a4.607,4.607,0,0,0,2.068.581,4.582,4.582,0,0,1-1.416-6.119A13,13,0,0,0,10.991,53.7a5.164,5.164,0,0,1-.113-1.048,4.579,4.579,0,0,1,7.917-3.13,9.007,9.007,0,0,0,2.9-1.1,4.562,4.562,0,0,1-2.011,2.521,9.171,9.171,0,0,0,2.634-.708A9.834,9.834,0,0,1,20.027,52.6Z" transform="translate(47 208.918)" fill="#e4e4e4"/>
  </g>
</svg>
